<?xml version="1.0" encoding="UTF-8" standalone="no"?>
<!-- Created with Inkscape (http://www.inkscape.org/) -->

<svg
   xmlns:dc="http://purl.org/dc/elements/1.1/"
   xmlns:cc="http://creativecommons.org/ns#"
   xmlns:rdf="http://www.w3.org/1999/02/22-rdf-syntax-ns#"
   xmlns:svg="http://www.w3.org/2000/svg"
   xmlns="http://www.w3.org/2000/svg"
   xmlns:sodipodi="http://sodipodi.sourceforge.net/DTD/sodipodi-0.dtd"
   xmlns:inkscape="http://www.inkscape.org/namespaces/inkscape"
   width="250"
   height="200"
   id="svg2"
   version="1.1"
   inkscape:version="0.48.1 r9760"
   sodipodi:docname="line_of_sight_flaw.svg">
  <defs
     id="defs4" />
  <sodipodi:namedview
     id="base"
     pagecolor="#ffffff"
     bordercolor="#666666"
     borderopacity="1.0"
     inkscape:pageopacity="0.0"
     inkscape:pageshadow="2"
     inkscape:zoom="1"
     inkscape:cx="68.657635"
     inkscape:cy="110.39634"
     inkscape:document-units="px"
     inkscape:current-layer="layer3"
     showgrid="false"
     inkscape:window-width="1024"
     inkscape:window-height="550"
     inkscape:window-x="0"
     inkscape:window-y="25"
     inkscape:window-maximized="1" />
  <metadata
     id="metadata7">
    <rdf:RDF>
      <cc:Work
         rdf:about="">
        <dc:format>image/svg+xml</dc:format>
        <dc:type
           rdf:resource="http://purl.org/dc/dcmitype/StillImage" />
        <dc:title></dc:title>
      </cc:Work>
    </rdf:RDF>
  </metadata>
  <g
     inkscape:groupmode="layer"
     id="layer2"
     inkscape:label="polygon">
    <path
       style="fill:#000000;fill-opacity:0.10047847;stroke:#000000;stroke-width:3;stroke-linecap:butt;stroke-linejoin:miter;stroke-miterlimit:4;stroke-opacity:1;stroke-dasharray:none"
       d="M 64,148 23,118 38,100 54,112 89,68 75,60 60,82 35,63 74,14 l 57,37 22,-27 38,20 19,-35 32,22 -50,78 42,33 -33,43 -53,-34 17,-15 29,22 8,-15 -44,-29 -34,33 25,23 -15,21 -29,-33 -20,32 -35,-23 z"
       id="path3034"
       inkscape:connector-curvature="0"
       sodipodi:nodetypes="ccccccccccccccccccccccccccccc" />
  </g>
  <g
     inkscape:groupmode="layer"
     id="layer3"
     inkscape:label="lineofsight">
    <path
       style="fill:none;stroke:#000000;stroke-width:3;stroke-linecap:butt;stroke-linejoin:miter;stroke-miterlimit:4;stroke-opacity:1;stroke-dasharray:6, 3;stroke-dashoffset:0"
       d="M 63,147 132,47"
       id="path3037"
       inkscape:connector-curvature="0"
       sodipodi:nodetypes="cc" />
  </g>
  <g
     inkscape:label="nodes"
     inkscape:groupmode="layer"
     id="layer1"
     transform="translate(0,-852.36218)">
    <g
       id="use4567"
       transform="translate(71,-8)">
      <path
         transform="translate(-6,819.36218)"
         d="m 84,90 a 14,14 0 1 1 -28,0 14,14 0 1 1 28,0 z"
         sodipodi:ry="14"
         sodipodi:rx="14"
         sodipodi:cy="90"
         sodipodi:cx="70"
         id="path3876"
         style="color:#000000;fill:#000000;fill-opacity:0.50239234;stroke:none;stroke-width:3;marker:none;visibility:visible;display:inline;overflow:visible;enable-background:accumulate"
         sodipodi:type="arc" />
      <path
         transform="translate(-5.048951,820.31323)"
         d="m 84,90 a 14,14 0 1 1 -28,0 14,14 0 1 1 28,0 z"
         sodipodi:ry="14"
         sodipodi:rx="14"
         sodipodi:cy="90"
         sodipodi:cx="70"
         id="path3878"
         style="color:#000000;fill:#000000;fill-opacity:0.50239234;stroke:none;stroke-width:3;marker:none;visibility:visible;display:inline;overflow:visible;enable-background:accumulate"
         sodipodi:type="arc" />
      <path
         transform="translate(-8,817.36218)"
         d="m 84,90 a 14,14 0 1 1 -28,0 14,14 0 1 1 28,0 z"
         sodipodi:ry="14"
         sodipodi:rx="14"
         sodipodi:cy="90"
         sodipodi:cx="70"
         id="path3880"
         style="color:#000000;fill:#ff1717;fill-opacity:1;stroke:#000000;stroke-width:3;stroke-linecap:butt;stroke-linejoin:bevel;stroke-miterlimit:4;stroke-opacity:1;stroke-dasharray:none;stroke-dashoffset:0;marker:none;visibility:visible;display:inline;overflow:visible;enable-background:accumulate"
         sodipodi:type="arc" />
    </g>
    <text
       xml:space="preserve"
       style="font-size:20px;font-style:normal;font-variant:normal;font-weight:bold;font-stretch:normal;line-height:125%;letter-spacing:0px;word-spacing:0px;fill:#000000;fill-opacity:1;stroke:none;font-family:FreeSans;-inkscape-font-specification:Sans Bold"
       x="115"
       y="175"
       id="text3820"
       sodipodi:linespacing="125%"
       transform="translate(0,852.36218)"><tspan
         sodipodi:role="line"
         id="tspan3822"
         x="115"
         y="175" /></text>
    <g
       transform="translate(1.038059,92.66548)"
       id="use3850">
      <path
         sodipodi:type="arc"
         style="color:#000000;fill:#000000;fill-opacity:0.50239234;stroke:none;stroke-width:3;marker:none;visibility:visible;display:inline;overflow:visible;enable-background:accumulate"
         id="path3862"
         sodipodi:cx="70"
         sodipodi:cy="90"
         sodipodi:rx="14"
         sodipodi:ry="14"
         d="m 84,90 c 0,7.731986 -6.268014,14 -14,14 -7.731986,0 -14,-6.268014 -14,-14 0,-7.731986 6.268014,-14 14,-14 7.731986,0 14,6.268014 14,14 z"
         transform="translate(-6,819.36218)" />
      <path
         sodipodi:type="arc"
         style="color:#000000;fill:#000000;fill-opacity:0.50239234;stroke:none;stroke-width:3;marker:none;visibility:visible;display:inline;overflow:visible;enable-background:accumulate"
         id="path3864"
         sodipodi:cx="70"
         sodipodi:cy="90"
         sodipodi:rx="14"
         sodipodi:ry="14"
         d="m 84,90 c 0,7.731986 -6.268014,14 -14,14 -7.731986,0 -14,-6.268014 -14,-14 0,-7.731986 6.268014,-14 14,-14 7.731986,0 14,6.268014 14,14 z"
         transform="translate(-5.048951,820.31323)" />
      <path
         sodipodi:type="arc"
         style="color:#000000;fill:#00f425;fill-opacity:1;stroke:#000000;stroke-width:3;stroke-linecap:butt;stroke-linejoin:bevel;stroke-miterlimit:4;stroke-opacity:1;stroke-dasharray:none;stroke-dashoffset:0;marker:none;visibility:visible;display:inline;overflow:visible;enable-background:accumulate"
         id="path3866"
         sodipodi:cx="70"
         sodipodi:cy="90"
         sodipodi:rx="14"
         sodipodi:ry="14"
         d="m 84,90 c 0,7.731986 -6.268014,14 -14,14 -7.731986,0 -14,-6.268014 -14,-14 0,-7.731986 6.268014,-14 14,-14 7.731986,0 14,6.268014 14,14 z"
         transform="translate(-8,817.36218)" />
    </g>
    <flowRoot
       xml:space="preserve"
       id="flowRoot3898"
       style="fill:black;stroke:none;stroke-opacity:1;stroke-width:1px;stroke-linejoin:miter;stroke-linecap:butt;fill-opacity:1;font-family:FreeSans;font-style:normal;font-weight:bold;font-size:20px;-inkscape-font-specification:Sans Bold;font-stretch:normal;font-variant:normal;line-height:125%;letter-spacing:0px;word-spacing:0px"><flowRegion
         id="flowRegion3900"><rect
           id="rect3902"
           width="14.142136"
           height="53.033009"
           x="217.78889"
           y="32.415691" /></flowRegion><flowPara
         id="flowPara3904" /></flowRoot>  </g>
</svg>
